# xmcd
# 
# Track frame offsets:
#     187
#     21637
#     44062
# 
# Disc length: 870
# 
# Revision: 3
# Processed by: cddbd v1.5.2PL0 Copyright (c) Steve Scherf et al.
# Submitted via: fre:ac v1.0.17
# 
DISCID=28036403
DTITLE=Every Little Thing - Over and Over
DYEAR=1999
DGENRE=J-Pop
TTITLE0=Over and Over
TTITLE1=Over and Over 〜HΛL'S REMIX〜
TTITLE2=Over and Over 〜INSTRUMENTAL〜
EXTD=YEAR: 1999/01/27
EXTT0=
EXTT1=
EXTT2=
PLAYORDER=
